<svg width="406" height="471" viewBox="0 0 406 471" fill="none" xmlns="http://www.w3.org/2000/svg">
<rect y="71" width="400" height="400" fill="#118AB2"/>
<path d="M76.9375 284.375C76.9792 282.667 76.6875 281.25 76.0625 280.125C75.4792 278.958 74.5 277.812 73.125 276.688C71.4583 275.354 69.25 274.292 66.5 273.5C63.7917 272.708 61.4167 272.042 59.375 271.5C56.5 270.792 53.4583 269.917 50.25 268.875C47.0833 267.792 44.1667 266.396 41.5 264.688C38.7917 262.979 36.5625 260.875 34.8125 258.375C33.1042 255.875 32.25 252.833 32.25 249.25C32.25 245.542 33.1875 242.375 35.0625 239.75C36.9792 237.125 39.4375 235 42.4375 233.375C44.9375 232 47.75 230.958 50.875 230.25C54.0417 229.542 57.0625 229.188 59.9375 229.188C63.4375 229.188 66.8333 229.646 70.125 230.562C73.4583 231.438 76.4375 232.792 79.0625 234.625C81.6875 236.5 83.8333 238.833 85.5 241.625C87.2083 244.417 88.1875 247.688 88.4375 251.438H76.75C76.6667 249.146 76.125 247.188 75.125 245.562C74.1667 243.938 72.8958 242.604 71.3125 241.562C69.7292 240.521 67.9375 239.771 65.9375 239.312C63.9375 238.854 61.8958 238.625 59.8125 238.625C58.1458 238.625 56.375 238.792 54.5 239.125C52.625 239.458 50.8958 240.021 49.3125 240.812C47.7292 241.646 46.4167 242.75 45.375 244.125C44.3333 245.458 43.8125 247.146 43.8125 249.188C43.8125 250.854 44.2083 252.292 45 253.5C45.8333 254.667 46.875 255.625 48.125 256.375C50.1667 257.625 52.625 258.688 55.5 259.562C58.375 260.396 60.8125 261.042 62.8125 261.5C65.7292 262.25 68.7083 263.208 71.75 264.375C74.7917 265.5 77.5625 266.938 80.0625 268.688C82.5625 270.479 84.6042 272.646 86.1875 275.188C87.7708 277.688 88.5625 280.708 88.5625 284.25C88.5625 287.792 87.7083 290.812 86 293.312C84.2917 295.771 82.2083 297.75 79.75 299.25C76.8333 300.875 73.6458 302.083 70.1875 302.875C66.7708 303.625 63.4792 304 60.3125 304C56.7292 304 53.1458 303.562 49.5625 302.688C46.0208 301.812 42.8125 300.438 39.9375 298.562C38.6458 297.729 37.4375 296.792 36.3125 295.75C35.1875 294.708 34.1875 293.562 33.3125 292.312C32.2708 290.771 31.4167 289.083 30.75 287.25C30.125 285.375 29.75 283.354 29.625 281.188H41.375C41.4583 283.729 42.0625 285.875 43.1875 287.625C44.3542 289.333 45.8333 290.708 47.625 291.75C49.4167 292.833 51.4167 293.604 53.625 294.062C55.8333 294.479 58.0625 294.688 60.3125 294.688C61.9792 294.688 63.7708 294.542 65.6875 294.25C67.6458 293.958 69.4583 293.417 71.125 292.625C72.75 291.875 74.1042 290.833 75.1875 289.5C76.3125 288.167 76.8958 286.458 76.9375 284.375ZM123.812 293.562H166V303H109.438V295.25L150.125 239.75H110V230.188H164.438L164.5 237.75L123.812 293.562ZM242.812 293.625C241.104 295.667 239.167 297.354 237 298.688C234.875 300.021 232.604 301.083 230.188 301.875C227.771 302.667 225.271 303.208 222.688 303.5C220.104 303.833 217.562 304 215.062 304C210.021 304 205.5 303.104 201.5 301.312C197.5 299.479 194.104 296.979 191.312 293.812C188.521 290.688 186.354 287.021 184.812 282.812C183.312 278.604 182.542 274.083 182.5 269.25V264C182.542 259.167 183.25 254.646 184.625 250.438C186 246.188 188 242.479 190.625 239.312C193.25 236.188 196.5 233.729 200.375 231.938C204.292 230.104 208.792 229.188 213.875 229.188C217.583 229.188 221.062 229.688 224.312 230.688C227.604 231.646 230.521 233.083 233.062 235C235.604 236.917 237.708 239.333 239.375 242.25C241.083 245.125 242.229 248.458 242.812 252.25H231.375C230.917 250.25 230.25 248.458 229.375 246.875C228.542 245.292 227.5 243.938 226.25 242.812C224.75 241.438 222.979 240.417 220.938 239.75C218.896 239.042 216.583 238.688 214 238.688C210.375 238.688 207.292 239.396 204.75 240.812C202.25 242.229 200.229 244.125 198.688 246.5C197.104 248.875 195.958 251.583 195.25 254.625C194.583 257.625 194.229 260.708 194.188 263.875V269.25C194.229 272.5 194.667 275.646 195.5 278.688C196.333 281.729 197.625 284.417 199.375 286.75C201.083 289.083 203.25 290.979 205.875 292.438C208.5 293.854 211.625 294.562 215.25 294.562C216.625 294.562 218.042 294.521 219.5 294.438C220.958 294.312 222.396 294.083 223.812 293.75C225.188 293.417 226.521 292.958 227.812 292.375C229.104 291.75 230.271 290.938 231.312 289.938L231.375 275.062H214.062V266.062H242.812V293.625ZM273.938 266.062C273.938 260.104 274.396 254.5 275.312 249.25C276.271 244 277.542 239.125 279.125 234.625C280.708 230.167 282.521 226.083 284.562 222.375C286.646 218.667 288.833 215.375 291.125 212.5C293.375 209.625 295.646 207.167 297.938 205.125C300.229 203.083 302.417 201.479 304.5 200.312L306.938 207.938C305.604 208.938 304.25 210.146 302.875 211.562C301.542 212.979 300.229 214.562 298.938 216.312C297.021 219.021 295.188 222.208 293.438 225.875C291.688 229.5 290.229 233.479 289.062 237.812C287.938 241.729 287.062 246.042 286.438 250.75C285.812 255.458 285.5 260.521 285.5 265.938V266.812C285.5 272.021 285.792 276.896 286.375 281.438C286.958 285.979 287.75 290.167 288.75 294C289.833 297.875 291.083 301.458 292.5 304.75C293.917 308.083 295.396 311.062 296.938 313.688C298.521 316.188 300.146 318.396 301.812 320.312C303.521 322.271 305.229 323.938 306.938 325.312L304.5 332.375C302.417 331.208 300.208 329.604 297.875 327.562C295.583 325.562 293.312 323.104 291.062 320.188C288.771 317.312 286.583 314.021 284.5 310.312C282.458 306.646 280.667 302.562 279.125 298.062C277.542 293.604 276.271 288.75 275.312 283.5C274.396 278.25 273.938 272.646 273.938 266.688V266.062ZM381.562 266.688C381.562 272.646 381.083 278.25 380.125 283.5C379.208 288.75 377.958 293.604 376.375 298.062C374.792 302.562 372.958 306.646 370.875 310.312C368.833 314.021 366.688 317.312 364.438 320.188C362.146 323.104 359.833 325.562 357.5 327.562C355.208 329.604 353.021 331.208 350.938 332.375L348.5 325.312C350.25 324.021 352.021 322.354 353.812 320.312C355.604 318.271 357.312 315.917 358.938 313.25C360.479 310.542 361.958 307.479 363.375 304.062C364.833 300.688 366.021 296.979 366.938 292.938C367.896 289.188 368.625 285.146 369.125 280.812C369.667 276.438 369.938 271.771 369.938 266.812V265.938C369.938 260.312 369.583 255.208 368.875 250.625C368.208 246.042 367.458 242.146 366.625 238.938C365.417 234.354 363.958 230.25 362.25 226.625C360.542 222.958 358.792 219.771 357 217.062C355.625 214.938 354.208 213.083 352.75 211.5C351.292 209.875 349.875 208.5 348.5 207.375L350.938 200.312C353.021 201.479 355.229 203.083 357.562 205.125C359.896 207.167 362.188 209.625 364.438 212.5C366.771 215.458 368.958 218.75 371 222.375C373.042 226 374.833 230.083 376.375 234.625C377.875 239 379.104 243.75 380.062 248.875C381.062 253.958 381.562 259.688 381.562 266.062V266.688Z" fill="#F5F5F5"/>
</svg>
