<svg width="353" height="133" viewBox="0 0 353 133" fill="none" xmlns="http://www.w3.org/2000/svg">
<path d="M48.25 84.375C48.2917 82.6667 48 81.25 47.375 80.125C46.7917 78.9583 45.8125 77.8125 44.4375 76.6875C42.7708 75.3542 40.5625 74.2917 37.8125 73.5C35.1042 72.7083 32.7292 72.0417 30.6875 71.5C27.8125 70.7917 24.7708 69.9167 21.5625 68.875C18.3958 67.7917 15.4792 66.3958 12.8125 64.6875C10.1042 62.9792 7.875 60.875 6.125 58.375C4.41667 55.875 3.5625 52.8333 3.5625 49.25C3.5625 45.5417 4.5 42.375 6.375 39.75C8.29167 37.125 10.75 35 13.75 33.375C16.25 32 19.0625 30.9583 22.1875 30.25C25.3542 29.5417 28.375 29.1875 31.25 29.1875C34.75 29.1875 38.1458 29.6458 41.4375 30.5625C44.7708 31.4375 47.75 32.7917 50.375 34.625C53 36.5 55.1458 38.8333 56.8125 41.625C58.5208 44.4167 59.5 47.6875 59.75 51.4375H48.0625C47.9792 49.1458 47.4375 47.1875 46.4375 45.5625C45.4792 43.9375 44.2083 42.6042 42.625 41.5625C41.0417 40.5208 39.25 39.7708 37.25 39.3125C35.25 38.8542 33.2083 38.625 31.125 38.625C29.4583 38.625 27.6875 38.7917 25.8125 39.125C23.9375 39.4583 22.2083 40.0208 20.625 40.8125C19.0417 41.6458 17.7292 42.75 16.6875 44.125C15.6458 45.4583 15.125 47.1458 15.125 49.1875C15.125 50.8542 15.5208 52.2917 16.3125 53.5C17.1458 54.6667 18.1875 55.625 19.4375 56.375C21.4792 57.625 23.9375 58.6875 26.8125 59.5625C29.6875 60.3958 32.125 61.0417 34.125 61.5C37.0417 62.25 40.0208 63.2083 43.0625 64.375C46.1042 65.5 48.875 66.9375 51.375 68.6875C53.875 70.4792 55.9167 72.6458 57.5 75.1875C59.0833 77.6875 59.875 80.7083 59.875 84.25C59.875 87.7917 59.0208 90.8125 57.3125 93.3125C55.6042 95.7708 53.5208 97.75 51.0625 99.25C48.1458 100.875 44.9583 102.083 41.5 102.875C38.0833 103.625 34.7917 104 31.625 104C28.0417 104 24.4583 103.562 20.875 102.688C17.3333 101.812 14.125 100.438 11.25 98.5625C9.95833 97.7292 8.75 96.7917 7.625 95.75C6.5 94.7083 5.5 93.5625 4.625 92.3125C3.58333 90.7708 2.72917 89.0833 2.0625 87.25C1.4375 85.375 1.0625 83.3542 0.9375 81.1875H12.6875C12.7708 83.7292 13.375 85.875 14.5 87.625C15.6667 89.3333 17.1458 90.7083 18.9375 91.75C20.7292 92.8333 22.7292 93.6042 24.9375 94.0625C27.1458 94.4792 29.375 94.6875 31.625 94.6875C33.2917 94.6875 35.0833 94.5417 37 94.25C38.9583 93.9583 40.7708 93.4167 42.4375 92.625C44.0625 91.875 45.4167 90.8333 46.5 89.5C47.625 88.1667 48.2083 86.4583 48.25 84.375ZM95.125 93.5625H137.312V103H80.75V95.25L121.438 39.75H81.3125V30.1875H135.75L135.812 37.75L95.125 93.5625ZM214.125 93.625C212.417 95.6667 210.479 97.3542 208.312 98.6875C206.188 100.021 203.917 101.083 201.5 101.875C199.083 102.667 196.583 103.208 194 103.5C191.417 103.833 188.875 104 186.375 104C181.333 104 176.812 103.104 172.812 101.312C168.812 99.4792 165.417 96.9792 162.625 93.8125C159.833 90.6875 157.667 87.0208 156.125 82.8125C154.625 78.6042 153.854 74.0833 153.812 69.25V64C153.854 59.1667 154.562 54.6458 155.938 50.4375C157.312 46.1875 159.312 42.4792 161.938 39.3125C164.562 36.1875 167.812 33.7292 171.688 31.9375C175.604 30.1042 180.104 29.1875 185.188 29.1875C188.896 29.1875 192.375 29.6875 195.625 30.6875C198.917 31.6458 201.833 33.0833 204.375 35C206.917 36.9167 209.021 39.3333 210.688 42.25C212.396 45.125 213.542 48.4583 214.125 52.25H202.688C202.229 50.25 201.562 48.4583 200.688 46.875C199.854 45.2917 198.812 43.9375 197.562 42.8125C196.062 41.4375 194.292 40.4167 192.25 39.75C190.208 39.0417 187.896 38.6875 185.312 38.6875C181.688 38.6875 178.604 39.3958 176.062 40.8125C173.562 42.2292 171.542 44.125 170 46.5C168.417 48.875 167.271 51.5833 166.562 54.625C165.896 57.625 165.542 60.7083 165.5 63.875V69.25C165.542 72.5 165.979 75.6458 166.812 78.6875C167.646 81.7292 168.938 84.4167 170.688 86.75C172.396 89.0833 174.562 90.9792 177.188 92.4375C179.812 93.8542 182.938 94.5625 186.562 94.5625C187.938 94.5625 189.354 94.5208 190.812 94.4375C192.271 94.3125 193.708 94.0833 195.125 93.75C196.5 93.4167 197.833 92.9583 199.125 92.375C200.417 91.75 201.583 90.9375 202.625 89.9375L202.688 75.0625H185.375V66.0625H214.125V93.625ZM245.25 66.0625C245.25 60.1042 245.708 54.5 246.625 49.25C247.583 44 248.854 39.125 250.438 34.625C252.021 30.1667 253.833 26.0833 255.875 22.375C257.958 18.6667 260.146 15.375 262.438 12.5C264.688 9.625 266.958 7.16667 269.25 5.125C271.542 3.08333 273.729 1.47917 275.812 0.3125L278.25 7.9375C276.917 8.9375 275.562 10.1458 274.188 11.5625C272.854 12.9792 271.542 14.5625 270.25 16.3125C268.333 19.0208 266.5 22.2083 264.75 25.875C263 29.5 261.542 33.4792 260.375 37.8125C259.25 41.7292 258.375 46.0417 257.75 50.75C257.125 55.4583 256.812 60.5208 256.812 65.9375V66.8125C256.812 72.0208 257.104 76.8958 257.688 81.4375C258.271 85.9792 259.062 90.1667 260.062 94C261.146 97.875 262.396 101.458 263.812 104.75C265.229 108.083 266.708 111.062 268.25 113.688C269.833 116.188 271.458 118.396 273.125 120.312C274.833 122.271 276.542 123.938 278.25 125.312L275.812 132.375C273.729 131.208 271.521 129.604 269.188 127.562C266.896 125.562 264.625 123.104 262.375 120.188C260.083 117.312 257.896 114.021 255.812 110.312C253.771 106.646 251.979 102.562 250.438 98.0625C248.854 93.6042 247.583 88.75 246.625 83.5C245.708 78.25 245.25 72.6458 245.25 66.6875V66.0625ZM352.875 66.6875C352.875 72.6458 352.396 78.25 351.438 83.5C350.521 88.75 349.271 93.6042 347.688 98.0625C346.104 102.562 344.271 106.646 342.188 110.312C340.146 114.021 338 117.312 335.75 120.188C333.458 123.104 331.146 125.562 328.812 127.562C326.521 129.604 324.333 131.208 322.25 132.375L319.812 125.312C321.562 124.021 323.333 122.354 325.125 120.312C326.917 118.271 328.625 115.917 330.25 113.25C331.792 110.542 333.271 107.479 334.688 104.062C336.146 100.688 337.333 96.9792 338.25 92.9375C339.208 89.1875 339.938 85.1458 340.438 80.8125C340.979 76.4375 341.25 71.7708 341.25 66.8125V65.9375C341.25 60.3125 340.896 55.2083 340.188 50.625C339.521 46.0417 338.771 42.1458 337.938 38.9375C336.729 34.3542 335.271 30.25 333.562 26.625C331.854 22.9583 330.104 19.7708 328.312 17.0625C326.938 14.9375 325.521 13.0833 324.062 11.5C322.604 9.875 321.188 8.5 319.812 7.375L322.25 0.3125C324.333 1.47917 326.542 3.08333 328.875 5.125C331.208 7.16667 333.5 9.625 335.75 12.5C338.083 15.4583 340.271 18.75 342.312 22.375C344.354 26 346.146 30.0833 347.688 34.625C349.188 39 350.417 43.75 351.375 48.875C352.375 53.9583 352.875 59.6875 352.875 66.0625V66.6875Z" fill="black"/>
</svg>
